<svg width="26" height="25" viewBox="0 0 26 25" fill="none" xmlns="http://www.w3.org/2000/svg">
<path d="M25.3857 3.10726C25.3913 2.69591 25.2303 2.29976 24.9394 2.00886C24.6485 1.71796 24.2524 1.55702 23.841 1.56262C22.9879 1.56262 22.2964 2.25418 22.2964 3.10726V19.7276L3.08101 0.491667C2.69594 0.0784169 2.11601 -0.0916915 1.56873 0.0480753C1.02144 0.187842 0.594092 0.615192 0.454325 1.16248C0.314559 1.70976 0.484667 2.28969 0.897917 2.67476L20.1339 21.9107H3.51351C2.66043 21.9107 1.96887 22.6023 1.96887 23.4554C1.96887 24.3084 2.66043 25 3.51351 25H23.8616C24.7147 25 25.4062 24.3084 25.4062 23.4554L25.3857 3.10726Z" fill="white"/>
</svg>
