<svg width="24" height="25" viewBox="0 0 24 25" fill="none" xmlns="http://www.w3.org/2000/svg">
<path d="M14.7601 5.28003H6.83007C6.41585 5.28003 6.08007 5.61582 6.08007 6.03003C6.08007 6.44424 6.41585 6.78003 6.83007 6.78003H14.7101C16.719 6.83451 18.3126 8.49053 18.2901 10.5V12.67C18.2901 14.7135 16.6335 16.37 14.5901 16.37H7.50007L9.15006 14.7C9.29301 14.5607 9.37363 14.3696 9.37363 14.17C9.37363 13.9704 9.29301 13.7793 9.15006 13.64C8.85725 13.3476 8.38288 13.3476 8.09007 13.64L5.16007 16.57C5.09227 16.6394 5.03801 16.7208 5.00007 16.81C4.93032 16.9971 4.93032 17.203 5.00007 17.39C5.03801 17.4793 5.09227 17.5607 5.16007 17.63L8.09007 20.56C8.22995 20.7017 8.421 20.781 8.62006 20.78C8.81936 20.7821 9.01084 20.7026 9.15006 20.56C9.29301 20.4207 9.37363 20.2296 9.37363 20.03C9.37363 19.8304 9.29301 19.6393 9.15006 19.5L7.50007 17.85H14.5901C17.4619 17.85 19.7901 15.5219 19.7901 12.65V10.5C19.8184 7.67911 17.5801 5.35628 14.7601 5.28003Z" fill="black"/>
</svg>
