<svg width="34" height="47" viewBox="0 0 34 47" fill="none" xmlns="http://www.w3.org/2000/svg">
<path fill-rule="evenodd" clip-rule="evenodd" d="M33.595 8.4425C33.5964 10.3406 32.9179 12.1764 31.6825 13.6175L27.565 18.32C25.041 21.2743 25.041 25.6257 27.565 28.58L31.5925 33.395C33.5826 35.7534 34.0216 39.053 32.7174 41.8497C31.4132 44.6465 28.6034 46.431 25.5175 46.4225H8.17004C3.79231 46.4101 0.250027 42.8577 0.250045 38.48C0.243736 36.6161 0.906381 34.8118 2.11754 33.395L6.19004 28.535C8.66092 25.5783 8.66092 21.2767 6.19004 18.32L2.11754 13.46C0.906381 12.0432 0.243736 10.2389 0.250045 8.375C0.28701 4.02362 3.81852 0.51217 8.17004 0.5H25.675C30.0528 0.512402 33.5951 4.06475 33.595 8.4425ZM29.1851 35.3975L25.18 30.605C21.6446 26.4847 21.6351 20.4039 25.1575 16.2725L29.2075 11.57C29.9652 10.7046 30.3812 9.59265 30.3775 8.4425C30.4029 5.8091 28.3079 3.64391 25.675 3.5825H8.17005C6.30746 3.58333 4.61406 4.66326 3.82772 6.35172C3.04138 8.04018 3.30455 10.0313 4.50255 11.4575L8.59755 16.3175C12.0444 20.4309 12.0444 26.4241 8.59755 30.5375L4.50255 35.3975C3.30455 36.8237 3.04138 38.8148 3.82772 40.5033C4.61406 42.1917 6.30746 43.2717 8.17005 43.2725H25.5175C28.1644 43.2725 30.31 41.1268 30.3101 38.48C30.3194 37.3504 29.9198 36.2556 29.1851 35.3975Z" fill="#EEEEEE"/>
<path d="M23.2001 37.535H10.6451C9.85361 37.4399 9.258 36.7684 9.258 35.9712C9.258 35.1741 9.85361 34.5026 10.6451 34.4075H23.2001C23.9916 34.5026 24.5872 35.1741 24.5872 35.9712C24.5872 36.7684 23.9916 37.4399 23.2001 37.535Z" fill="#EEEEEE"/>
</svg>
